<?xml version="1.0" encoding="utf-8"?>
<svg version="1.1" xmlns:xlink="http://www.w3.org/1999/xlink" width="300px" height="170px" xmlns="http://www.w3.org/2000/svg">
  <g transform="matrix(1 0 0 1 -103 -271 )">
    <path d="M 103 271  L 403 271  L 403 441  L 103 441  L 103 271  " fill-rule="nonzero" fill="#cccccc" stroke="none" />
    <path d="M 115 283  L 391 283  L 391 429  L 115 429  L 115 283  " fill-rule="nonzero" fill="#ffffff" stroke="none" />
    <path d="M 271.75 322  C 264.61 322  259 316.39  259 309.25  C 259 302.11  264.61 296.5  271.75 296.5  C 278.89 296.5  284.5 302.11  284.5 309.25  C 284.5 316.39  278.89 322  271.75 322  " fill-rule="nonzero" fill="#cccccc" stroke="none" />
    <path d="M 120 425  L 120 349.65  L 186.75 315.4  L 280.2 378.42  L 333.6 335.95  L 387 378.42  L 387 425  L 120 425  " fill-rule="nonzero" fill="#169bd5" stroke="none" />
  </g>
</svg>