<?xml version="1.0" encoding="utf-8"?>
<svg version="1.1" xmlns:xlink="http://www.w3.org/1999/xlink" width="383px" height="368px" xmlns="http://www.w3.org/2000/svg">
  <g transform="matrix(1 0 0 1 -436 -178 )">
    <path d="M 436 178  L 819 178  L 819 546  L 436 546  L 436 178  " fill-rule="nonzero" fill="#cccccc" stroke="none" />
    <path d="M 462 204  L 793 204  L 793 520  L 462 520  L 462 204  " fill-rule="nonzero" fill="#ffffff" stroke="none" />
    <path d="M 662.76 288.4  C 647.304 288.4  635.16 276.256  635.16 260.8  C 635.16 245.344  647.304 233.2  662.76 233.2  C 678.216 233.2  690.36 245.344  690.36 260.8  C 690.36 276.256  678.216 288.4  662.76 288.4  " fill-rule="nonzero" fill="#cccccc" stroke="none" />
    <path d="M 471 511  L 471 347.1  L 549.25 272.6  L 658.8 339.202610966057  L 721.4 317.3  L 784 339.202610966057  L 784 511  L 471 511  " fill-rule="nonzero" fill="#169bd5" stroke="none" />
  </g>
</svg>