<?xml version="1.0" encoding="utf-8"?>
<svg version="1.1" xmlns:xlink="http://www.w3.org/1999/xlink" width="181px" height="100px" xmlns="http://www.w3.org/2000/svg">
  <g transform="matrix(1 0 0 1 -189 -489 )">
    <path d="M 189 489  L 370 489  L 370 589  L 189 589  L 189 489  " fill-rule="nonzero" fill="#cccccc" stroke="none" />
    <path d="M 196 496  L 363 496  L 363 582  L 196 582  L 196 496  " fill-rule="nonzero" fill="#ffffff" stroke="none" />
    <path d="M 290.62 519  C 286.42 519  283.12 515.7  283.12 511.5  C 283.12 507.3  286.42 504  290.62 504  C 294.82 504  298.12 507.3  298.12 511.5  C 298.12 515.7  294.82 519  290.62 519  " fill-rule="nonzero" fill="#cccccc" stroke="none" />
    <path d="M 199 580  L 199 535.45  L 239.5 515.2  L 296.2 553.149171270718  L 328.6 527.35  L 361 553.149171270718  L 361 580  L 199 580  " fill-rule="nonzero" fill="#169bd5" stroke="none" />
  </g>
</svg>